<svg width="40" height="41" viewBox="0 0 40 41" fill="none" xmlns="http://www.w3.org/2000/svg">
<path d="M0 9.93396C0 4.72373 4.22373 0.5 9.43396 0.5H30.566C35.7763 0.5 40 4.72373 40 9.93396V31.066C40 36.2763 35.7763 40.5 30.566 40.5H9.43396C4.22373 40.5 0 36.2763 0 31.066V9.93396Z" fill="#D9D9D9"/>
<path d="M0 9.93396C0 4.72373 4.22373 0.5 9.43396 0.5H30.566C35.7763 0.5 40 4.72373 40 9.93396V31.066C40 36.2763 35.7763 40.5 30.566 40.5H9.43396C4.22373 40.5 0 36.2763 0 31.066V9.93396Z" fill="#CBD5E1"/>
<path d="M34.4696 8.77921C34.6044 8.65478 34.6296 8.45101 34.5243 8.30077C34.1549 7.77345 33.7329 7.28565 33.2659 6.845C33.1852 6.76883 33.084 6.71727 32.9754 6.69442C28.2258 5.69526 23.9614 5.85039 19.851 7.10419C14.646 8.69189 9.5542 12.0751 3.96877 17.3875C3.84445 17.5058 3.77359 17.6708 3.77359 17.8424V27.2925C3.77359 28.0095 3.85357 28.7078 4.00511 29.379C4.06773 29.6563 4.40783 29.7457 4.61243 29.5483C8.95154 25.3609 14.3671 21.1114 20.538 18.332C25.7916 15.9658 30.5171 12.4286 34.4696 8.77921Z" fill="#020617"/>
<path d="M36.0673 11.9733C36.0154 11.6938 35.6793 11.5913 35.4671 11.7803C31.5441 15.2749 26.9007 18.6393 21.7261 20.9699C15.5209 23.7647 10.0525 28.1932 5.72427 32.5105C5.59442 32.6401 5.57723 32.8444 5.68811 32.9905C5.73337 33.0501 5.77933 33.1092 5.82596 33.1677C5.90222 33.2634 6.00729 33.3327 6.1244 33.3682C11.9358 35.1275 17.0078 35.2499 21.8857 33.8349C26.5219 32.49 31.0883 29.7311 36.0099 25.4707C36.1473 25.3518 36.2264 25.1783 36.2264 24.9967V13.7075C36.2264 13.1151 36.1718 12.5354 36.0673 11.9733Z" fill="#020617"/>
<path d="M18.9976 4.27359C19.0345 4.27359 19.0422 4.32623 19.0069 4.33698C14.2107 5.79998 9.60447 8.60368 4.84328 12.6922C4.42907 13.0479 3.80538 12.7533 3.89114 12.2141C4.60695 7.71352 8.50553 4.27359 13.2075 4.27359H18.9976Z" fill="#020617"/>
<path d="M22.7073 36.7264C22.642 36.7264 22.629 36.6316 22.6917 36.6134C26.7292 35.4422 30.6461 33.3269 34.6452 30.3032C35.116 29.9473 35.7385 30.3529 35.5128 30.8982C34.0966 34.3195 30.7256 36.7264 26.7925 36.7264H22.7073Z" fill="#020617"/>
</svg>
